<?xml version="1.0" standalone="no"?><!DOCTYPE svg PUBLIC "-//W3C//DTD SVG 1.1//EN" "http://www.w3.org/Graphics/SVG/1.1/DTD/svg11.dtd"><svg t="1685954569329" class="icon" viewBox="0 0 1027 1024" version="1.1" xmlns="http://www.w3.org/2000/svg" p-id="3565" xmlns:xlink="http://www.w3.org/1999/xlink" width="200.5859375" height="200"><path d="M529.066667 665.6c44.373333 0 85.333333 0 119.466666-3.413333v-85.333334c-54.613333 10.24-116.053333 20.48-177.493333 20.48-187.733333 0-245.76-102.4-245.76-105.813333-3.413333-6.826667 0-17.066667 6.826667-23.893333 6.826667-3.413333 17.066667 0 23.893333 6.826666 3.413333 3.413333 51.2 88.746667 218.453333 88.746667 174.08 0 337.92-75.093333 341.333334-75.093333 10.24-3.413333 17.066667 0 23.893333 6.826666 3.413333 10.24 0 17.066667-6.826667 23.893334-3.413333 0-17.066667 6.826667-44.373333 17.066666-3.413333 3.413333-3.413333 6.826667-3.413333 10.24v98.986667c85.333333-17.066667 105.813333-40.96 105.813333-40.96 3.413333-6.826667 13.653333-10.24 23.893333-6.826667 6.826667 3.413333 10.24 10.24 10.24 17.066667 61.44-47.786667 98.986667-88.746667 102.4-102.4 0-34.133333-3.413333-58.026667-17.066666-71.68-6.826667-10.24-20.48-13.653333-34.133334-13.653333-44.373333 0-98.986667 20.48-98.986666 23.893333-20.48-68.266667-40.96-136.533333-51.2-163.84-17.066667-58.026667-44.373333-98.986667-105.813334-98.986667-51.2 0-92.16 17.066667-126.293333 34.133334-58.026667 0-75.093333-10.24-92.16-17.066667-17.066667-10.24-37.546667-17.066667-95.573333-17.066667-129.706667 0-167.253333 92.16-170.666667 95.573334l-88.746667 266.24c27.306667 34.133333 126.293333 116.053333 382.293334 116.053333z m-174.08-409.6c10.24 0 17.066667 6.826667 20.48 13.653333 0 3.413333 17.066667 20.48 68.266666 20.48 37.546667 0 51.2-6.826667 92.16-30.72 6.826667-3.413333 17.066667-3.413333 23.893334 6.826667s3.413333 17.066667-6.826667 23.893333c-40.96 23.893333-64.853333 34.133333-109.226667 34.133334-92.16 0-102.4-44.373333-102.4-47.786667 0-10.24 6.826667-20.48 13.653334-20.48z" fill="" p-id="3566"></path><path d="M750.933333 651.946667v-102.4c-20.48 6.826667-44.373333 13.653333-68.266666 20.48v92.16c27.306667-3.413333 47.786667-6.826667 68.266666-10.24z" fill="" p-id="3567"></path><path d="M856.746667 662.186667c-54.613333 20.48-150.186667 37.546667-327.68 37.546666-279.893333 0-382.293333-92.16-413.013334-129.706666-68.266667 20.48-116.053333 92.16-116.053333 126.293333 0 58.026667 44.373333 139.946667 430.08 139.946667 129.706667 0 300.373333-88.746667 426.666667-174.08zM621.226667 826.026667c283.306667-34.133333 372.053333-136.533333 375.466666-139.946667l3.413334-3.413333c0-3.413333 17.066667-47.786667 20.48-109.226667-68.266667 75.093333-238.933333 191.146667-399.36 252.586667z" fill="" p-id="3568"></path></svg>